<?xml version="1.0" standalone="no"?>
<!DOCTYPE svg PUBLIC "-//W3C//DTD SVG 20010904//EN"
 "http://www.w3.org/TR/2001/REC-SVG-20010904/DTD/svg10.dtd">
<svg version="1.0" xmlns="http://www.w3.org/2000/svg"
 width="589.000000pt" height="441.000000pt" viewBox="0 0 589.000000 441.000000"
 preserveAspectRatio="xMidYMid meet">

<g transform="translate(0.000000,441.000000) scale(0.100000,-0.100000)"
fill="#000000" stroke="none">
<path d="M1670 3735 l0 -556 118 3 117 3 2 143 c1 79 4 150 7 158 5 12 53 14
303 14 l298 -1 0 393 0 393 -422 3 -423 2 0 -555z m618 158 l2 -203 -190 0
-190 0 0 198 c0 109 3 202 7 206 4 3 88 5 187 4 l181 -3 3 -202z"/>
<path d="M2638 3833 l-3 -458 -308 -3 -308 -2 3 -93 3 -92 420 0 420 0 3 553
2 552 -115 0 -115 0 -2 -457z"/>
<path d="M3020 4280 c-25 -8 -25 -8 -2 -9 13 -1 21 -4 19 -8 -3 -5 160 -6 361
-3 l367 5 -365 5 -365 5 400 1 c220 1 384 -2 365 -6 l-35 -7 38 -2 c27 -1 37
3 37 14 0 13 -50 15 -397 14 -219 -1 -409 -5 -423 -9z"/>
<path d="M3982 4283 c-19 -4 -23 -9 -18 -26 3 -12 6 -196 6 -409 0 -252 4
-388 10 -388 6 0 10 136 10 389 0 249 -4 392 -10 396 -15 9 -12 25 6 25 8 0
13 -4 10 -8 -2 -4 10 -7 27 -5 18 1 59 4 92 6 l60 3 0 -533 0 -533 -400 2
-400 3 0 75 0 75 290 2 c160 1 293 3 298 3 4 0 7 3 7 8 0 4 -137 6 -305 4
l-305 -3 0 -73 c0 -41 -3 -81 -6 -90 -6 -14 35 -16 415 -16 l420 0 1 544 0
544 -22 6 c-25 6 -150 6 -186 -1z m141 -10 c-24 -2 -62 -2 -85 0 -24 2 -5 4
42 4 47 0 66 -2 43 -4z"/>
<path d="M3005 3725 l0 -535 113 0 113 0 -3 155 -3 155 309 0 c170 0 306 3
303 7 -4 3 -133 5 -287 4 -154 -1 -280 1 -280 6 0 5 -9 9 -20 10 -11 1 -18 -2
-15 -8 4 -5 -3 -9 -14 -9 -16 0 -19 -4 -13 -19 4 -11 6 -81 4 -155 l-3 -136
-95 0 -94 0 0 530 c0 292 -3 530 -7 530 -5 0 -8 -241 -8 -535z"/>
<path d="M3828 3903 c-2 -192 0 -355 4 -363 4 -8 8 148 8 348 0 199 -2 362 -4
362 -3 0 -6 -156 -8 -347z"/>
<path d="M3208 4153 c6 -2 18 -2 25 0 6 3 1 5 -13 5 -14 0 -19 -2 -12 -5z"/>
<path d="M3267 4147 c-6 -15 9 -17 161 -20 l167 -3 -178 1 c-97 0 -177 -3
-177 -7 0 -4 -10 -8 -22 -11 -13 -2 73 -4 190 -5 l214 0 1 -209 1 -208 5 210
c6 201 5 211 -14 227 -17 15 -43 18 -177 18 -112 0 -157 3 -160 12 -3 8 -7 6
-11 -5z"/>
<path d="M3645 4140 c3 -5 8 -10 11 -10 2 0 4 5 4 10 0 6 -5 10 -11 10 -5 0
-7 -4 -4 -10z"/>
<path d="M3208 3886 c-2 -133 0 -202 7 -200 14 6 21 404 6 404 -7 0 -11 -68
-13 -204z"/>
<path d="M3240 3672 c0 -4 71 -6 158 -4 225 4 236 9 25 11 -101 0 -183 -2
-183 -7z"/>
<path d="M3250 3643 c0 -5 66 -7 147 -5 219 4 232 9 31 10 -98 1 -178 -1 -178
-5z"/>
<path d="M3965 3410 c-3 -5 1 -10 9 -10 9 0 16 5 16 10 0 6 -4 10 -9 10 -6 0
-13 -4 -16 -10z"/>
<path d="M3978 3293 c7 -3 16 -2 19 1 4 3 -2 6 -13 5 -11 0 -14 -3 -6 -6z"/>
<path d="M1680 2520 l0 -550 110 0 110 0 -2 148 -2 147 -6 -139 c-4 -122 -7
-139 -22 -142 -11 -1 -18 4 -19 14 0 11 -2 12 -6 5 -3 -9 -28 -13 -73 -13
l-69 0 -3 528 c-2 343 0 529 7 534 11 8 759 10 780 2 20 -8 22 -734 3 -734
-10 0 -10 -2 0 -9 11 -6 10 -9 -5 -13 -13 -3 -430 -9 -580 -8 -7 0 -13 -5 -13
-11 0 -5 4 -7 10 -4 5 3 145 6 310 5 l300 -1 0 390 c0 345 -2 390 -16 395 -9
3 -195 6 -415 6 l-399 0 0 -550z"/>
<path d="M2640 2621 c0 -294 3 -451 10 -451 7 0 10 153 10 439 0 283 4 442 10
446 6 3 10 1 10 -5 0 -7 6 -8 14 -3 8 4 40 6 70 5 l56 -4 0 -516 c0 -466 2
-517 17 -534 15 -17 15 -18 -5 -18 -12 0 -22 3 -22 8 0 4 -169 5 -375 2 -329
-4 -375 -3 -376 10 0 10 -3 8 -9 -5 -6 -13 -9 7 -9 63 l-1 82 258 0 c148 0
263 -4 272 -10 8 -5 11 -10 5 -10 -5 0 -4 -4 4 -9 20 -13 48 -2 54 20 5 18 -5
19 -299 19 l-304 0 0 -90 0 -90 415 0 415 0 0 548 0 548 -110 3 -110 2 0 -450z
m209 -96 c-1 -288 -6 -522 -10 -519 -14 8 -11 1044 2 1044 7 0 10 -158 8 -525z
m-234 -395 c3 -5 -1 -10 -9 -10 -9 0 -16 5 -16 10 0 6 4 10 9 10 6 0 13 -4 16
-10z"/>
<path d="M3000 2520 l0 -550 105 0 c58 0 108 -1 113 -2 4 -2 9 67 12 152 l5
155 303 3 302 2 0 395 0 395 -420 0 -420 0 0 -550z m610 155 l0 -205 -190 0
-190 0 0 205 0 205 190 0 190 0 0 -205z"/>
<path d="M3958 2613 l-3 -458 -300 0 -300 0 0 -94 0 -95 40 1 c22 1 210 1 418
2 l377 1 0 550 0 550 -115 0 -115 0 -2 -457z"/>
<path d="M2685 2635 c0 -214 1 -301 2 -192 2 109 2 285 0 390 -1 106 -2 17 -2
-198z"/>
<path d="M1920 2890 c0 -6 65 -10 178 -9 108 0 169 4 157 9 -29 12 -335 12
-335 0z"/>
<path d="M1842 2870 c0 -14 2 -19 5 -12 2 6 2 18 0 25 -3 6 -5 1 -5 -13z"/>
<path d="M1867 2883 c-12 -11 -7 -23 9 -23 13 0 15 -25 13 -196 -1 -169 1
-198 15 -212 9 -9 16 -12 16 -6 0 7 64 10 183 8 183 -1 228 5 208 30 -6 7 -9
15 -6 17 10 11 6 352 -5 363 -8 8 -11 -40 -10 -184 0 -107 1 -199 0 -205 0 -6
-72 -10 -195 -10 l-195 0 0 195 c-1 145 -4 199 -14 212 -7 10 -16 15 -19 11z"/>
<path d="M1856 2842 c-3 -6 -1 -14 5 -17 14 -9 20 -2 10 14 -6 8 -11 9 -15 3z"/>
<path d="M1860 2657 c0 -83 -4 -167 -9 -185 -9 -28 -7 -32 10 -32 13 0 18 4
13 12 -4 6 -6 89 -5 185 1 95 0 173 -3 173 -3 0 -6 -69 -6 -153z"/>
<path d="M2248 2433 c6 -2 18 -2 25 0 6 3 1 5 -13 5 -14 0 -19 -2 -12 -5z"/>
<path d="M1890 2420 c0 -5 5 -10 11 -10 5 0 7 5 4 10 -3 6 -8 10 -11 10 -2 0
-4 -4 -4 -10z"/>
<path d="M2300 2419 c0 -5 5 -7 10 -4 6 3 10 8 10 11 0 2 -4 4 -10 4 -5 0 -10
-5 -10 -11z"/>
<path d="M1858 2312 c5 -15 34 -12 39 3 2 6 -8 10 -21 10 -15 0 -22 -5 -18
-13z"/>
<path d="M1842 2275 c0 -16 2 -22 5 -12 2 9 2 23 0 30 -3 6 -5 -1 -5 -18z"/>
<path d="M1867 2273 c-4 -3 -6 -29 -6 -57 l1 -51 8 55 c9 57 8 65 -3 53z"/>
<path d="M2055 2120 c-3 -5 -2 -10 4 -10 5 0 13 5 16 10 3 6 2 10 -4 10 -5 0
-13 -4 -16 -10z"/>
<path d="M2438 2113 c23 -2 61 -2 85 0 23 2 4 4 -43 4 -47 0 -66 -2 -42 -4z"/>
<path d="M95 1383 c55 -8 55 -7 55 -252 0 -124 -4 -231 -8 -237 -4 -7 -18 -14
-32 -17 -14 -2 20 -5 75 -5 90 -1 96 0 65 11 l-35 12 -2 215 c-1 118 -4 227
-6 242 -2 18 2 29 12 31 9 3 -22 5 -69 4 -47 0 -71 -2 -55 -4z"/>
<path d="M328 1380 c18 -4 41 -15 51 -24 10 -9 20 -14 22 -11 3 2 5 -4 6 -13
1 -9 5 -38 8 -63 6 -35 3 -54 -13 -85 -29 -56 -54 -75 -114 -84 -37 -5 -43 -8
-21 -9 98 -4 194 48 211 113 13 49 -2 107 -37 138 -30 27 -89 49 -126 47 -11
-1 -6 -4 13 -9z m122 -200 c-6 -11 -15 -20 -20 -20 -6 0 -2 9 7 20 10 11 19
20 21 20 1 0 -2 -9 -8 -20z"/>
<path d="M2807 1362 l24 -22 -3 -289 c-3 -276 -4 -291 -24 -318 -28 -37 -50
-40 -101 -12 -34 19 -45 21 -55 11 -33 -33 47 -71 108 -51 35 11 74 49 98 96
25 51 36 170 35 383 0 170 2 196 16 206 14 10 4 13 -53 16 l-70 3 25 -23z
m-117 -656 c0 -3 -4 -8 -10 -11 -5 -3 -10 -1 -10 4 0 6 5 11 10 11 6 0 10 -2
10 -4z"/>
<path d="M800 1281 c61 -7 113 -33 141 -71 10 -14 26 -54 35 -90 16 -60 16
-69 1 -120 -10 -33 -29 -68 -48 -88 -40 -41 -25 -42 24 -1 103 85 110 243 15
319 -49 38 -110 60 -168 58 l-55 -1 55 -6z"/>
<path d="M4447 1275 c-90 -34 -147 -112 -147 -202 1 -116 101 -216 214 -212
30 1 30 1 -8 10 -142 33 -203 219 -112 342 29 40 71 60 141 68 l60 6 -55 1
c-30 0 -72 -6 -93 -13z m-106 -122 c-12 -20 -14 -14 -5 12 4 9 9 14 11 11 3
-2 0 -13 -6 -23z"/>
<path d="M5115 1097 c-38 -105 -78 -200 -87 -209 -17 -17 -16 -18 24 -18 36 0
39 2 25 13 -16 11 -15 18 12 92 l29 80 82 1 c44 1 79 0 76 -3 -3 -3 6 -35 20
-70 27 -73 30 -99 12 -106 -7 -3 14 -5 47 -5 33 0 53 2 43 5 -21 5 -31 28
-109 240 -86 232 -83 232 -174 -20z m113 68 c13 -39 29 -73 34 -76 5 -3 2 -9
-7 -13 -24 -9 -113 -7 -119 2 -8 13 47 162 58 159 5 -2 20 -34 34 -72z"/>
<path d="M1144 1264 c13 -13 16 -45 16 -194 0 -160 -2 -180 -17 -189 -14 -8
-6 -10 35 -11 49 0 52 1 37 16 -14 14 -15 42 -13 205 l3 189 -38 0 c-35 0 -37
-1 -23 -16z"/>
<path d="M1371 1268 c109 -29 160 -166 105 -284 -23 -48 -69 -94 -97 -94 -7 0
-10 -3 -6 -6 11 -12 74 17 107 49 87 85 93 221 13 292 -31 26 -104 56 -137 54
-13 -1 -7 -5 15 -11z"/>
<path d="M1663 1268 c15 -11 17 -37 18 -192 1 -162 -1 -181 -17 -193 -15 -11
6 -13 134 -13 138 0 152 2 152 18 0 9 3 28 5 42 l5 25 -10 -26 c-14 -35 -49
-49 -124 -49 -91 0 -97 8 -94 110 l3 85 73 0 c54 0 75 -4 82 -15 7 -11 10 -4
10 25 -1 32 -3 36 -11 23 -8 -15 -24 -18 -85 -18 l-75 0 3 88 3 87 77 3 c67 2
80 0 98 -18 l20 -20 0 25 0 25 -142 0 c-116 0 -139 -2 -125 -12z"/>
<path d="M2064 1264 c13 -13 16 -45 16 -189 0 -144 -3 -176 -16 -189 -14 -15
-11 -16 36 -16 50 0 50 0 35 23 -12 18 -14 57 -12 205 l2 182 -38 0 c-35 0
-37 -1 -23 -16z"/>
<path d="M2247 1265 c40 -17 53 -42 53 -100 0 -54 -20 -88 -61 -105 l-30 -13
23 -15 c12 -9 49 -42 83 -75 72 -70 100 -86 162 -92 39 -4 43 -3 20 4 -36 12
-74 42 -162 125 -65 62 -69 68 -50 78 10 6 30 22 42 34 28 28 31 88 7 123 -17
24 -71 51 -101 51 -11 -1 -6 -6 14 -15z m113 -320 c13 -14 21 -25 18 -25 -2 0
-15 11 -28 25 -13 14 -21 25 -18 25 2 0 15 -11 28 -25z"/>
<path d="M3030 1273 c27 -11 30 -26 30 -164 0 -124 2 -139 23 -169 37 -55 81
-75 167 -75 86 0 130 20 167 75 21 30 23 45 23 166 0 121 2 136 20 154 20 20
20 20 -32 19 -29 0 -46 -3 -38 -6 27 -10 30 -26 30 -161 0 -155 -9 -180 -75
-212 -52 -25 -108 -25 -163 0 -66 30 -82 74 -82 227 0 115 1 123 22 137 21 15
19 16 -42 15 -36 0 -58 -3 -50 -6z"/>
<path d="M3584 1264 c13 -13 16 -44 16 -187 0 -95 -4 -177 -8 -183 -4 -6 -14
-14 -22 -17 -8 -3 12 -6 44 -6 51 -1 57 1 42 12 -15 11 -17 32 -14 205 l3 192
-38 0 c-35 0 -37 -1 -23 -16z"/>
<path d="M3815 1265 c22 -8 54 -30 72 -49 95 -103 48 -299 -81 -332 -15 -3
-25 -8 -22 -11 10 -11 90 23 126 55 53 45 73 85 76 152 4 86 -38 150 -120 184
-21 9 -50 16 -65 16 -22 -1 -20 -3 14 -15z"/>
<path d="M4090 1273 c8 -3 18 -11 22 -17 4 -6 8 -88 8 -183 0 -143 -3 -174
-16 -187 -14 -15 -10 -16 48 -16 57 0 61 1 38 13 -25 12 -25 14 -30 179 -3 91
-2 164 3 161 4 -2 7 5 7 16 0 11 8 25 18 30 13 8 1 10 -48 10 -36 0 -58 -3
-50 -6z"/>
<path d="M4626 1261 c17 -10 40 -32 52 -47 l21 -29 1 35 c0 32 -3 36 -40 48
-57 17 -70 15 -34 -7z"/>
<path d="M4810 1273 c8 -3 18 -11 22 -17 4 -6 8 -88 8 -183 0 -143 -3 -174
-16 -187 -14 -15 -10 -16 43 -15 32 1 51 3 42 6 -25 6 -29 33 -29 210 0 156 1
162 22 177 21 15 19 16 -42 15 -36 0 -58 -3 -50 -6z"/>
<path d="M5490 1273 c8 -3 18 -11 22 -17 4 -6 8 -88 8 -183 0 -143 -3 -174
-16 -187 -14 -15 -4 -16 115 -16 l130 0 17 32 17 32 -32 -27 c-29 -24 -41 -27
-106 -27 -57 0 -74 3 -79 16 -3 9 -6 91 -6 184 0 140 3 171 16 184 14 15 10
16 -43 15 -32 0 -51 -3 -43 -6z"/>
<path d="M651 1240 c-29 -22 -40 -36 -37 -48 3 -9 1 -24 -5 -32 -8 -12 -9 -10
-4 8 9 31 -2 27 -20 -8 -21 -40 -21 -139 -1 -178 9 -17 30 -44 48 -61 34 -31
125 -66 155 -58 14 4 13 5 -5 6 -54 3 -119 58 -147 125 -35 84 -12 203 49 251
45 36 17 31 -33 -5z"/>
<path d="M4689 929 c-12 -17 -36 -38 -53 -46 -25 -11 -26 -13 -6 -9 14 3 31 6
37 6 7 0 22 18 33 40 24 48 20 52 -11 9z"/>
<path d="M1328 873 c6 -2 18 -2 25 0 6 3 1 5 -13 5 -14 0 -19 -2 -12 -5z"/>
<path d="M828 863 c6 -2 18 -2 25 0 6 3 1 5 -13 5 -14 0 -19 -2 -12 -5z"/>
<path d="M4558 863 c7 -3 16 -2 19 1 4 3 -2 6 -13 5 -11 0 -14 -3 -6 -6z"/>
<path d="M4104 513 c-28 -36 -23 -36 28 0 15 11 25 24 22 29 -10 15 -21 8 -50
-29z"/>
<path d="M1603 489 c15 -9 17 -29 17 -189 0 -160 -2 -180 -17 -189 -14 -8 -7
-10 32 -11 38 0 46 3 37 12 -8 8 -12 67 -12 200 l0 188 -37 0 c-31 -1 -35 -3
-20 -11z"/>
<path d="M1833 486 c49 -18 72 -39 97 -90 43 -90 10 -219 -67 -264 -47 -27
-26 -29 26 -3 118 61 147 226 55 313 -29 27 -101 58 -133 58 -9 -1 1 -7 22
-14z"/>
<path d="M2863 489 c15 -9 17 -29 17 -187 0 -125 -4 -182 -12 -190 -9 -9 -1
-12 38 -12 39 1 45 3 31 11 -15 9 -18 23 -17 87 1 43 1 128 1 190 l-1 112 -37
0 c-31 -1 -35 -3 -20 -11z"/>
<path d="M3041 485 c59 -32 62 -125 7 -177 -16 -15 -42 -29 -57 -29 -15 -1
-19 -3 -9 -6 25 -6 92 14 117 36 56 49 46 138 -19 171 -44 23 -79 27 -39 5z"/>
<path d="M2188 413 c18 -2 45 -2 60 0 15 2 0 4 -33 4 -33 0 -45 -2 -27 -4z"/>
<path d="M2280 411 c0 -5 6 -14 14 -20 12 -10 13 -8 9 8 -5 21 -23 30 -23 12z"/>
<path d="M2408 407 c12 -14 18 -279 7 -296 -4 -8 24 -11 89 -11 89 0 96 2 107
22 12 22 11 22 -8 5 -24 -21 -138 -25 -146 -4 -3 7 -6 70 -6 139 -2 104 1 129
14 142 15 15 13 16 -26 16 -33 0 -39 -3 -31 -13z"/>
<path d="M3255 413 c-19 -4 -20 -10 -17 -144 2 -97 -1 -145 -9 -155 -10 -12 5
-14 99 -14 91 0 111 3 116 16 11 29 6 39 -10 16 -13 -19 -24 -22 -90 -22 l-74
0 0 149 0 150 53 4 52 3 -50 1 c-27 0 -59 -2 -70 -4z"/>
<path d="M3397 409 c12 -7 24 -19 27 -28 3 -9 4 -5 3 9 -2 19 -8 26 -27 27
-25 3 -25 3 -3 -8z"/>
<path d="M3534 404 c13 -12 16 -40 16 -140 0 -69 -5 -134 -10 -145 -10 -17 -7
-19 27 -18 21 0 32 3 26 6 -10 3 -13 45 -13 159 l0 154 -31 0 c-28 0 -29 -1
-15 -16z"/>
<path d="M3682 405 c50 -28 50 -123 0 -152 l-28 -16 49 -46 c28 -25 54 -45 59
-43 5 1 7 -2 3 -7 -8 -15 34 -39 80 -46 l40 -6 -35 16 c-19 9 -63 44 -96 77
l-62 61 34 32 c51 49 42 104 -21 131 -44 18 -58 17 -23 -1z"/>
<path d="M3957 413 c-1 -1 0 -55 3 -120 7 -136 18 -162 81 -187 83 -33 170
-10 201 54 13 26 18 60 18 129 0 68 4 99 14 110 13 14 11 16 -15 16 -29 0 -37
-9 -19 -20 6 -3 10 -48 10 -98 0 -149 -33 -191 -144 -184 -49 3 -63 8 -81 30
-13 14 -25 24 -26 22 -10 -9 2 229 11 240 8 9 3 12 -21 11 -17 -1 -31 -2 -32
-3z"/>
<path d="M2106 399 c9 -15 9 -273 0 -288 -6 -9 19 -11 100 -9 85 2 108 6 112
18 4 12 2 13 -9 2 -8 -7 -41 -12 -86 -12 l-73 0 -1 88 c-2 231 1 212 -26 212
-15 0 -22 -4 -17 -11z"/>
<path d="M2215 270 l-60 -6 60 -5 c64 -5 69 -5 64 8 -2 4 -31 6 -64 3z"/>
<path d="M3335 270 l-60 -7 56 -1 c30 -1 59 -6 65 -12 6 -6 10 -3 10 10 0 11
-3 19 -6 18 -3 -1 -32 -4 -65 -8z"/>
<path d="M1788 103 c6 -2 18 -2 25 0 6 3 1 5 -13 5 -14 0 -19 -2 -12 -5z"/>
</g>
</svg>
